<?xml version="1.0" standalone="no"?>
<!DOCTYPE svg PUBLIC "-//W3C//DTD SVG 20010904//EN"
 "http://www.w3.org/TR/2001/REC-SVG-20010904/DTD/svg10.dtd">
<svg version="1.0" xmlns="http://www.w3.org/2000/svg"
 width="512.000000pt" height="512.000000pt" viewBox="0 0 512.000000 512.000000"
 preserveAspectRatio="xMidYMid meet">
<metadata>
Created by potrace 1.14, written by Peter Selinger 2001-2017
</metadata>
<g transform="translate(0.000000,512.000000) scale(0.100000,-0.100000)"
fill="#000000" stroke="none">
<path d="M765 3654 c-220 -47 -349 -187 -317 -343 25 -117 96 -176 213 -175
113 0 193 66 205 168 14 109 -68 209 -178 218 -36 3 -35 10 2 42 75 63 215 38
289 -51 47 -56 64 -128 59 -238 -9 -159 -54 -231 -246 -394 -263 -222 -346
-342 -367 -528 l-7 -63 32 0 c22 0 38 8 56 29 51 61 99 63 313 10 146 -37 328
-49 424 -29 176 36 290 160 332 358 22 107 21 112 -18 112 -29 0 -35 -5 -46
-35 -24 -67 -95 -79 -292 -49 -74 11 -141 14 -234 11 -145 -6 -207 -20 -291
-66 -32 -17 -60 -29 -62 -26 -9 9 49 75 94 106 76 52 202 106 349 149 361 105
456 176 480 358 29 216 -130 388 -405 438 -98 17 -296 16 -385 -2z"/>
<path d="M2237 3649 c-249 -61 -423 -214 -503 -444 -26 -74 -28 -91 -28 -235
0 -142 2 -162 27 -236 47 -141 144 -264 267 -339 131 -79 262 -109 454 -103
131 4 132 4 326 70 107 36 223 69 258 73 l62 7 0 254 0 254 50 0 c49 0 50 1
50 30 l0 30 -385 0 -385 0 0 -30 c0 -30 1 -30 55 -30 l55 0 0 -260 c0 -287 -3
-306 -60 -335 -37 -19 -63 -19 -101 1 -57 29 -59 43 -59 493 0 533 10 605 92
676 79 67 210 67 327 -2 70 -41 162 -138 221 -235 42 -70 58 -88 77 -88 l23 0
0 235 0 235 -39 0 c-30 0 -59 -12 -120 -50 -44 -27 -84 -50 -87 -50 -4 0 -34
13 -68 30 -143 70 -345 90 -509 49z"/>
<path d="M3200 3615 c0 -24 2 -25 75 -25 l75 0 0 -610 0 -610 -75 0 c-74 0
-75 0 -75 -25 l0 -26 613 4 c551 3 618 5 672 21 195 58 278 162 271 341 -2 59
-8 83 -33 126 -56 101 -179 162 -349 176 -73 5 -84 8 -84 24 0 16 8 19 53 19
69 0 199 33 253 65 185 109 172 371 -24 478 -28 15 -85 36 -128 47 -73 19
-112 20 -661 20 l-583 0 0 -25z m864 -47 c53 -27 56 -39 56 -251 0 -258 -9
-277 -124 -277 l-56 0 0 276 0 277 52 -7 c28 -4 61 -12 72 -18z m12 -610 c15
-7 37 -26 48 -41 20 -27 21 -41 21 -235 0 -179 -2 -211 -18 -239 -25 -46 -57
-64 -127 -70 l-60 -6 0 308 0 308 55 -6 c30 -3 66 -11 81 -19z"/>
<path d="M430 1790 l0 -340 2158 2 2157 3 3 338 2 337 -2160 0 -2160 0 0 -340z
m1146 174 c35 -17 64 -49 64 -70 0 -6 -15 -14 -32 -17 -25 -4 -39 1 -59 19
-20 20 -36 24 -83 24 -69 0 -96 -12 -96 -45 0 -30 19 -41 85 -50 137 -18 196
-53 198 -118 1 -43 -23 -81 -65 -103 -43 -22 -178 -23 -230 -1 -38 16 -78 67
-78 100 0 26 76 25 85 -2 12 -37 41 -53 102 -54 71 0 103 15 103 48 0 34 -32
51 -116 63 -119 17 -164 49 -164 118 0 38 17 62 58 83 49 26 178 29 228 5z
m245 -61 c28 -43 55 -81 58 -86 4 -4 33 31 65 78 56 82 59 85 97 85 21 0 39
-3 39 -6 0 -3 -31 -49 -68 -102 -92 -129 -92 -130 -92 -212 l0 -71 -37 3 -38
3 -3 79 -3 79 -70 100 c-91 129 -90 127 -40 127 39 0 42 -2 92 -77z m623 43
c65 -32 96 -84 96 -159 0 -133 -75 -186 -272 -195 l-117 -5 -3 198 -3 198 123
-6 c106 -4 130 -8 176 -31z m357 -103 l114 -137 3 137 3 137 39 0 40 0 0 -195
0 -195 -32 0 c-18 0 -38 4 -44 8 -6 4 -57 63 -113 132 -57 69 -107 127 -112
128 -5 2 -9 -57 -9 -132 l0 -136 -35 0 -35 0 0 195 0 195 34 0 c30 0 42 -11
147 -137z m619 102 l0 -35 -120 0 -120 0 0 -45 0 -45 115 0 115 0 0 -30 0 -30
-115 0 -115 0 0 -50 0 -50 126 0 c111 0 125 -2 120 -16 -3 -9 -6 -24 -6 -35 0
-18 -9 -19 -160 -19 l-160 0 0 195 0 195 160 0 160 0 0 -35z m217 -45 c29 -41
57 -75 62 -75 6 0 33 33 61 73 56 80 63 85 109 80 l30 -3 -79 -112 -80 -112 0
-81 0 -80 -40 0 -40 0 0 78 0 77 -80 113 c-44 62 -80 115 -80 118 0 3 19 4 42
2 40 -3 45 -7 95 -78z"/>
<path d="M2227 1903 c-4 -3 -7 -60 -7 -125 l0 -118 65 0 c113 0 165 36 172
117 7 91 -42 133 -158 133 -36 0 -69 -3 -72 -7z"/>
</g>
</svg>
